Fungal-Grow 700 Thickness 0.ufo
<glyph name="H" format="1">
  <advance width="1540"/>
  <unicode hex="0048"/>
  <outline>
    <contour>
      <point x="201" y="1493" type="line"/>
      <point x="403" y="1493" type="line"/>
      <point x="403" y="881" type="line"/>
      <point x="1137" y="881" type="line"/>
      <point x="1137" y="1493" type="line"/>
      <point x="1339" y="1493" type="line"/>
      <point x="1339" y="0" type="line"/>
      <point x="1137" y="0" type="line"/>
      <point x="1137" y="711" type="line"/>
      <point x="403" y="711" type="line"/>
      <point x="403" y="0" type="line"/>
      <point x="201" y="0" type="line"/>
      <point x="201" y="1493" type="line"/>
    </contour>
    <component base="blob1" xScale="0" xyScale="1.2886" yScale="0" yxScale="1.2886" xOffset="635" yOffset="832"/>
    <component base="blob2" xScale="0" xyScale="1" yScale="0" yxScale="1" xOffset="1124" yOffset="630"/>
    <component base="blob3" xScale="0" xyScale="1" yScale="0" yxScale="1" xOffset="1538" yOffset="395"/>
    <component base="blob4" xScale="0" xyScale="0.8783" yScale="0" yxScale="0.8783" xOffset="1905" yOffset="199"/>
    <component base="blob5" xScale="0" xyScale="1" yScale="0" yxScale="1" xOffset="2316" yOffset="234"/>
    <component base="blob6" xScale="0" xyScale="1.1539" yScale="0" yxScale="1.1539" xOffset="2768" yOffset="354"/>
    <component base="blob7" xScale="0" xyScale="0.9753" yScale="0" yxScale="0.9753" xOffset="3147" yOffset="648"/>
    <component base="blob8" xScale="0" xyScale="0.7047" yScale="0" yxScale="0.7047" xOffset="3475" yOffset="879"/>
    <component base="blob9" xScale="0" xyScale="0.4869" yScale="0" yxScale="0.4869" xOffset="3761" yOffset="867"/>
    <contour>
      <point x="770" y="1520" type="move" name="above"/>
    </contour>
    <contour>
      <point x="770" y="0" type="move" name="below"/>
    </contour>
    <contour>
      <point x="302" y="0" type="move" name="cedilla"/>
    </contour>
    <contour>
      <point x="0" y="1520" type="move" name="half"/>
    </contour>
  </outline>
</glyph>
<glyph name="w" format="1">
  <advance width="1675"/>
  <unicode hex="0077"/>
  <outline>
    <contour>
      <point x="86" y="1120" type="line"/>
      <point x="270" y="1120" type="line"/>
      <point x="500" y="246" type="line"/>
      <point x="729" y="1120" type="line"/>
      <point x="946" y="1120" type="line"/>
      <point x="1176" y="246" type="line"/>
      <point x="1405" y="1120" type="line"/>
      <point x="1589" y="1120" type="line"/>
      <point x="1296" y="0" type="line"/>
      <point x="1079" y="0" type="line"/>
      <point x="838" y="918" type="line"/>
      <point x="596" y="0" type="line"/>
      <point x="379" y="0" type="line"/>
      <point x="86" y="1120" type="line"/>
    </contour>
    <component base="blob1" xScale="-1.2886" yScale="1.2886" xOffset="516" yOffset="759"/>
    <component base="blob2" xScale="-1" xOffset="718" yOffset="1248"/>
    <component base="blob3" xScale="-1" xOffset="953" yOffset="1662"/>
    <component base="blob4" xScale="-0.8783" yScale="0.8783" xOffset="1149" yOffset="2029"/>
    <component base="blob5" xScale="-1" xOffset="1114" yOffset="2440"/>
    <component base="blob6" xScale="-1.1539" yScale="1.1539" xOffset="1318" yOffset="2960"/>
    <component base="blob7" xScale="-0.9753" yScale="0.9753" xOffset="1688" yOffset="3324"/>
    <component base="blob8" xScale="-0.7047" yScale="0.7047" xOffset="1895" yOffset="3613"/>
    <component base="blob9" xScale="-0.4869" yScale="0.4869" xOffset="2143" yOffset="3623"/>
    <component base="blob2" xScale="-1" xOffset="883" yOffset="526"/>
    <component base="blob3" xScale="-1" xOffset="1226" yOffset="205"/>
    <component base="blob4" xScale="-0.8783" yScale="0.8783" xOffset="1595" yOffset="409"/>
    <component base="blob5" xScale="-0.8015" yScale="0.8015" xOffset="1596" yOffset="787"/>
    <component base="blob6" xScale="-0.7971" yScale="0.7971" xOffset="1494" yOffset="1142"/>
    <component base="blob7" xScale="-0.9753" yScale="0.9753" xOffset="1167" yOffset="944"/>
    <component base="blob8" xScale="-0.7047" yScale="0.7047" xOffset="1150" yOffset="554"/>
    <contour>
      <point x="839" y="1147" type="move" name="above"/>
    </contour>
    <contour>
      <point x="839" y="0" type="move" name="below"/>
    </contour>
    <contour>
      <point x="0" y="1520" type="move" name="half"/>
    </contour>
  </outline>
</glyph>
<glyph name="Igrave" format="1">
  <advance width="604"/>
  <unicode hex="00CC"/>
  <outline>
    <component base="I"/>
    <component base="Grave" xOffset="815" yOffset="373"/>
    <contour>
      <point x="303" y="0" type="move" name="below"/>
    </contour>
    <contour>
      <point x="303" y="0" type="move" name="cedilla"/>
    </contour>
  </outline>
</glyph>
<glyph name="uni0274" format="1">
  <advance width="1298"/>
  <unicode hex="0274"/>
  <outline>
    <contour>
      <point x="179" y="1120" type="line"/>
      <point x="451" y="1120" type="line"/>
      <point x="928" y="217" type="line"/>
      <point x="928" y="1120" type="line"/>
      <point x="1124" y="1120" type="line"/>
      <point x="1124" y="0" type="line"/>
      <point x="852" y="0" type="line"/>
      <point x="375" y="876" type="line"/>
      <point x="375" y="0" type="line"/>
      <point x="179" y="0" type="line"/>
    </contour>
    <contour>
      <point x="649" y="1147" type="move" name="above"/>
    </contour>
    <contour>
      <point x="649" y="0" type="move" name="below"/>
    </contour>
  </outline>
</glyph>
<glyph name="gravecomb" format="1">
  <advance width="0"/>
  <unicode hex="0300"/>
  <outline>
    <contour>
      <point x="-659" y="1638" type="line"/>
      <point x="-377" y="1264" type="line"/>
      <point x="-530" y="1264" type="line"/>
      <point x="-856" y="1638" type="line"/>
    </contour>
    <contour>
      <point x="-512" y="1147" type="move"/>
    </contour>
    <contour>
      <point x="-512" y="1147" type="move" name="_above"/>
    </contour>
    <contour>
      <point x="-512" y="1147" type="move" name="_above-legacy"/>
    </contour>
    <contour>
      <point x="-512" y="1147" type="move" name="_above-mark"/>
    </contour>
    <contour>
      <point x="-512" y="1640" type="move" name="above-mark"/>
    </contour>
  </outline>
</glyph>
<glyph name="acutecomb" format="1">
  <advance width="0"/>
  <unicode hex="0301"/>
  <outline>
    <contour>
      <point x="-375" y="1638" type="line"/>
      <point x="-176" y="1638" type="line"/>
      <point x="-502" y="1262" type="line"/>
      <point x="-655" y="1262" type="line"/>
    </contour>
    <contour>
      <point x="-512" y="1147" type="move"/>
    </contour>
    <contour>
      <point x="-512" y="1147" type="move" name="_above"/>
    </contour>
    <contour>
      <point x="-512" y="1147" type="move" name="_above-legacy"/>
    </contour>
    <contour>
      <point x="-512" y="1147" type="move" name="_above-mark"/>
    </contour>
    <contour>
      <point x="-512" y="1640" type="move" name="above-mark"/>
    </contour>
  </outline>
</glyph>
<glyph name="uni030F" format="1">
  <advance width="0"/>
  <unicode hex="030F"/>
  <outline>
    <contour>
      <point x="-753" y="1638" type="line"/>
      <point x="-548" y="1262" type="line"/>
      <point x="-683" y="1262" type="line"/>
      <point x="-931" y="1638" type="line"/>
    </contour>
    <contour>
      <point x="-419" y="1638" type="line"/>
      <point x="-229" y="1262" type="line"/>
      <point x="-366" y="1262" type="line"/>
      <point x="-589" y="1638" type="line"/>
    </contour>
    <contour>
      <point x="-512" y="1147" type="move" name="_above"/>
    </contour>
    <contour>
      <point x="-512" y="1147" type="move" name="_above-mark"/>
    </contour>
    <contour>
      <point x="-512" y="1640" type="move" name="above-mark"/>
    </contour>
  </outline>
</glyph>
<glyph name="uni0339" format="1">
  <advance width="0"/>
  <unicode hex="0339"/>
  <outline>
    <contour>
      <point x="-596" y="-66" type="line"/>
      <point x="-506" y="-66"/>
      <point x="-382" y="-191"/>
      <point x="-382" y="-281" type="qcurve" smooth="yes"/>
      <point x="-382" y="-370"/>
      <point x="-506" y="-494"/>
      <point x="-596" y="-494" type="qcurve"/>
      <point x="-596" y="-374" type="line"/>
      <point x="-556" y="-374"/>
      <point x="-503" y="-321"/>
      <point x="-503" y="-282" type="qcurve" smooth="yes"/>
      <point x="-503" y="-242"/>
      <point x="-556" y="-189"/>
      <point x="-596" y="-189" type="qcurve"/>
    </contour>
    <contour>
      <point x="-512" y="-2" type="move" name="_Ligature below"/>
    </contour>
    <contour>
      <point x="-512" y="-2" type="move" name="_below"/>
    </contour>
    <contour>
      <point x="-512" y="0" type="move" name="_below-mark"/>
    </contour>
    <contour>
      <point x="-512" y="-550" type="move" name="below-mark"/>
    </contour>
  </outline>
</glyph>
<glyph name="uni03F8" format="1">
  <advance width="1300"/>
  <unicode hex="03F8"/>
  <outline>
    <component base="thorn"/>
    <contour>
      <point x="278" y="1520" type="move" name="above"/>
    </contour>
  </outline>
</glyph>
<glyph name="uni0440" format="1">
  <advance width="1300"/>
  <unicode hex="0440"/>
  <outline>
    <component base="p"/>
    <contour>
      <point x="678" y="1147" type="move" name="above"/>
    </contour>
  </outline>
</glyph>
<glyph name="uni05D7" format="1">
  <advance width="1338"/>
  <unicode hex="05D7"/>
  <outline>
    <contour>
      <point x="1152" y="606" type="qcurve" smooth="yes"/>
      <point x="1152" y="0" type="line"/>
      <point x="966" y="0" type="line"/>
      <point x="966" y="633" type="line" smooth="yes"/>
      <point x="966" y="831"/>
      <point x="836" y="977"/>
      <point x="652" y="977" type="qcurve" smooth="yes"/>
      <point x="371" y="977" type="line"/>
      <point x="371" y="0" type="line"/>
      <point x="186" y="0" type="line"/>
      <point x="186" y="1120" type="line"/>
      <point x="650" y="1120" type="line" smooth="yes"/>
      <point x="926" y="1120"/>
      <point x="1152" y="880"/>
    </contour>
    <contour>
      <point x="683" y="0" type="move" name="rtl-below"/>
    </contour>
  </outline>
</glyph>
<glyph name="uni05DC" format="1">
  <advance width="1164"/>
  <unicode hex="05DC"/>
  <outline>
    <contour>
      <point x="385" y="0" type="line"/>
      <point x="789" y="977" type="line"/>
      <point x="88" y="977" type="line"/>
      <point x="88" y="1493" type="line"/>
      <point x="275" y="1493" type="line"/>
      <point x="275" y="1120" type="line"/>
      <point x="1008" y="1119" type="line"/>
      <point x="1005" y="1009" type="line"/>
      <point x="580" y="0" type="line"/>
    </contour>
    <contour>
      <point x="492" y="0" type="move" name="rtl-below"/>
    </contour>
    <contour>
      <point x="361" y="560" type="move" name="rtl-inside"/>
    </contour>
  </outline>
</glyph>
<glyph name="uni05F1" format="1">
  <advance width="866"/>
  <unicode hex="05F1"/>
  <outline>
    <component base="uni05D5" xOffset="308"/>
    <component base="uni05D9"/>
    <contour>
      <point x="482" y="0" type="move" name="rtl-below"/>
    </contour>
  </outline>
</glyph>
<glyph name="uni0695" format="1">
  <advance width="1250"/>
  <unicode hex="0695"/>
  <outline>
    <component base="uni065A" xOffset="518" yOffset="-1762"/>
    <component base="uni0631"/>
    <contour>
      <point x="700" y="750" type="move" name="rtl-above"/>
    </contour>
    <contour>
      <point x="500" y="-500" type="move" name="rtl-below"/>
    </contour>
  </outline>
</glyph>
<glyph name="uni069B" format="1">
  <advance width="2500"/>
  <unicode hex="069B"/>
  <outline>
    <component base="uni0633"/>
    <component base="arabic_3dots_a" xOffset="1400" yOffset="-250"/>
    <contour>
      <point x="600" y="800" type="move" name="rtl-above"/>
    </contour>
    <contour>
      <point x="600" y="-600" type="move" name="rtl-below"/>
    </contour>
  </outline>
</glyph>
<glyph name="uni069C" format="1">
  <advance width="2500"/>
  <unicode hex="069C"/>
  <outline>
    <component base="uni0633"/>
    <component base="arabic_3dots" xOffset="1250" yOffset="800"/>
    <component base="arabic_3dots_a" xOffset="1400" yOffset="-250"/>
    <contour>
      <point x="600" y="800" type="move" name="rtl-above"/>
    </contour>
    <contour>
      <point x="600" y="-600" type="move" name="rtl-below"/>
    </contour>
  </outline>
</glyph>
<glyph name="uni06B8" format="1">
  <advance width="1488"/>
  <unicode hex="06B8"/>
  <outline>
    <component base="uni0644"/>
    <component base="arabic_3dots_a" xOffset="550" yOffset="-550"/>
    <contour>
      <point x="650" y="1300" type="move" name="rtl-above"/>
    </contour>
    <contour>
      <point x="750" y="-850" type="move" name="rtl-below"/>
    </contour>
  </outline>
</glyph>
<glyph name="uni07CB" format="1">
  <advance width="1170"/>
  <unicode hex="07CB"/>
  <outline>
    <contour>
      <point x="269" y="312"/>
      <point x="454" y="127"/>
      <point x="716" y="127"/>
      <point x="901" y="312"/>
      <point x="901" y="574"/>
      <point x="716" y="759"/>
      <point x="454" y="759"/>
      <point x="269" y="574"/>
    </contour>
    <contour>
      <point x="113" y="638"/>
      <point x="390" y="915"/>
      <point x="780" y="915"/>
      <point x="1057" y="638"/>
      <point x="1057" y="248"/>
      <point x="780" y="-29"/>
      <point x="390" y="-29"/>
      <point x="113" y="248"/>
    </contour>
    <contour>
      <point x="585" y="1520" type="move" name="rtl-above"/>
    </contour>
    <contour>
      <point x="585" y="0" type="move" name="rtl-below"/>
    </contour>
  </outline>
</glyph>
<glyph name="uni07DC" format="1">
  <advance width="1280"/>
  <unicode hex="07DC"/>
  <outline>
    <contour>
      <point x="966" y="1346" type="line"/>
      <point x="314" y="1346" type="line"/>
      <point x="640" y="192" type="line"/>
    </contour>
    <contour>
      <point x="1219" y="1493" type="line"/>
      <point x="755" y="0" type="line"/>
      <point x="525" y="0" type="line"/>
      <point x="61" y="1493" type="line"/>
    </contour>
    <contour>
      <point x="640" y="1522" type="move" name="rtl-above"/>
    </contour>
    <contour>
      <point x="640" y="0" type="move" name="rtl-below"/>
    </contour>
  </outline>
</glyph>
<glyph name="uni07E4" format="1">
  <advance width="1085"/>
  <unicode hex="07E4"/>
  <outline>
    <contour>
      <point x="893" y="994" type="line"/>
      <point x="893" y="0" type="line"/>
      <point x="709" y="0" type="line"/>
      <point x="709" y="847" type="line"/>
      <point x="378" y="847" type="line"/>
      <point x="378" y="587" type="line"/>
      <point x="193" y="587" type="line"/>
      <point x="193" y="1254" type="line"/>
      <point x="378" y="1254" type="line"/>
      <point x="378" y="994" type="line"/>
    </contour>
    <contour>
      <point x="794" y="1520" type="move" name="rtl-above"/>
    </contour>
    <contour>
      <point x="794" y="0" type="move" name="rtl-below"/>
    </contour>
  </outline>
</glyph>
<glyph name="uni2C69" format="1">
  <advance width="1343"/>
  <unicode hex="2C69"/>
  <outline>
    <contour>
      <point x="1217" y="170" type="line"/>
      <point x="1386" y="170" type="line"/>
      <point x="1386" y="-321" type="line"/>
      <point x="1189" y="-321" type="line"/>
      <point x="1189" y="0" type="line"/>
      <point x="1120" y="0" type="line"/>
      <point x="403" y="719" type="line"/>
      <point x="403" y="0" type="line"/>
      <point x="201" y="0" type="line"/>
      <point x="201" y="1493" type="line"/>
      <point x="403" y="1493" type="line"/>
      <point x="403" y="862" type="line"/>
      <point x="1073" y="1493" type="line"/>
      <point x="1333" y="1493" type="line"/>
      <point x="592" y="797" type="line"/>
    </contour>
    <contour>
      <point x="670" y="1520" type="move" name="above"/>
    </contour>
    <contour>
      <point x="670" y="0" type="move" name="below"/>
    </contour>
  </outline>
</glyph>
<glyph name="uniA66C" format="1">
  <advance width="2781"/>
  <unicode hex="A66C"/>
  <outline>
    <component base="uniA74E"/>
    <component base="periodcentered" xOffset="1650.500"/>
    <component base="periodcentered" xOffset="481.500"/>
    <contour>
      <point x="1390" y="1520" type="move" name="above"/>
    </contour>
  </outline>
</glyph>
<glyph name="uniA73C" format="1">
  <advance width="1964"/>
  <unicode hex="A73C"/>
  <outline>
    <contour>
      <point x="700" y="1294" type="line"/>
      <point x="426" y="551" type="line"/>
      <point x="975" y="551" type="line"/>
    </contour>
    <contour>
      <point x="1339" y="-104" type="line" smooth="yes"/>
      <point x="1264" y="-302"/>
      <point x="1187" y="-365" type="qcurve" smooth="yes"/>
      <point x="1113" y="-426"/>
      <point x="989" y="-426" type="qcurve" smooth="yes"/>
      <point x="773" y="-426" type="line"/>
      <point x="773" y="-256" type="line"/>
      <point x="944" y="-256" type="line" smooth="yes"/>
      <point x="1020" y="-256"/>
      <point x="1062" y="-220" type="qcurve" smooth="yes"/>
      <point x="1105" y="-183"/>
      <point x="1155" y="-50" type="qcurve" smooth="yes"/>
      <point x="1174" y="0" type="line"/>
      <point x="1038" y="383" type="line"/>
      <point x="365" y="383" type="line"/>
      <point x="229" y="0" type="line"/>
      <point x="16" y="0" type="line"/>
      <point x="586" y="1493" type="line"/>
      <point x="815" y="1493" type="line"/>
      <point x="1278" y="277" type="line"/>
      <point x="1737" y="1493" type="line"/>
      <point x="1947" y="1493" type="line"/>
    </contour>
    <contour>
      <point x="1020" y="1520" type="move" name="above"/>
    </contour>
    <contour>
      <point x="1020" y="0" type="move" name="below"/>
    </contour>
    <contour>
      <point x="0" y="1520" type="move" name="half"/>
    </contour>
  </outline>
</glyph>
<glyph name="uniFB6D" format="1">
  <advance width="1036"/>
  <unicode hex="FB6D"/>
  <outline>
    <component base="uni06A1.medi"/>
    <component base="arabic_3dots" xOffset="318" yOffset="1000"/>
    <contour>
      <point x="518" y="1450" type="move" name="rtl-above"/>
    </contour>
    <contour>
      <point x="518" y="-150" type="move" name="rtl-below"/>
    </contour>
  </outline>
</glyph>
<glyph name="uniFB7E" format="1">
  <advance width="1322"/>
  <unicode hex="FB7E"/>
  <outline>
    <component base="arabic_4dots" xOffset="662" yOffset="175"/>
    <component base="uni062D"/>
    <contour>
      <point x="650" y="1000" type="move" name="rtl-above"/>
    </contour>
    <contour>
      <point x="812" y="-600" type="move" name="rtl-below"/>
    </contour>
  </outline>
</glyph>
<glyph name="uniFB83" format="1">
  <advance width="1075"/>
  <unicode hex="FB83"/>
  <outline>
    <component base="arabic_2dots" xOffset="299" yOffset="-300"/>
    <component base="uniFEAA"/>
    <contour>
      <point x="400" y="1000" type="move" name="rtl-above"/>
    </contour>
    <contour>
      <point x="499" y="-350" type="move" name="rtl-below"/>
    </contour>
  </outline>
</glyph>
<glyph name="uniFBD3" format="1">
  <advance width="1688"/>
  <unicode hex="FBD3"/>
  <outline>
    <component base="arabic_3dots" xOffset="625" yOffset="1350"/>
    <component base="uni0643"/>
    <contour>
      <point x="825" y="1800" type="move" name="rtl-above"/>
    </contour>
    <contour>
      <point x="800" y="-200" type="move" name="rtl-below"/>
    </contour>
  </outline>
</glyph>
<glyph name="uniFBDA" format="1">
  <advance width="1058"/>
  <unicode hex="FBDA"/>
  <outline>
    <component base="uni065A" xOffset="-12" yOffset="-450"/>
    <component base="uniFEEE"/>
    <contour>
      <point x="500" y="1250" type="move" name="rtl-above"/>
    </contour>
    <contour>
      <point x="500" y="-500" type="move" name="rtl-below"/>
    </contour>
  </outline>
</glyph>
<glyph name="uniFBFF" format="1">
  <advance width="618"/>
  <unicode hex="FBFF"/>
  <outline>
    <component base="uniFBE9"/>
    <component base="arabic_2dots" xOffset="99" yOffset="-300"/>
    <contour>
      <point x="299" y="1000" type="move" name="rtl-above"/>
    </contour>
    <contour>
      <point x="299" y="-350" type="move" name="rtl-below"/>
    </contour>
  </outline>
</glyph>
<glyph name="uniFE72" format="1">
  <advance width="600"/>
  <unicode hex="FE72"/>
  <outline>
    <component base="uni064C" xOffset="-212"/>
    <contour>
      <point x="300" y="1850" type="move" name="rtl-above"/>
    </contour>
    <contour>
      <point x="300" y="-100" type="move" name="rtl-below"/>
    </contour>
  </outline>
</glyph>
<glyph name="uniFE8C" format="1">
  <advance width="618"/>
  <unicode hex="FE8C"/>
  <outline>
    <component base="uniFBE9"/>
    <component base="uni0654" xOffset="-213" yOffset="-400"/>
    <contour>
      <point x="299" y="1350" type="move" name="rtl-above"/>
    </contour>
    <contour>
      <point x="299" y="-100" type="move" name="rtl-below"/>
    </contour>
  </outline>
</glyph>
<glyph name="uniFE94" format="1">
  <advance width="1098"/>
  <unicode hex="FE94"/>
  <outline>
    <component base="uniFEEA"/>
    <component base="arabic_2dots" xOffset="350" yOffset="900"/>
    <contour>
      <point x="550" y="1100" type="move" name="rtl-above"/>
    </contour>
    <contour>
      <point x="500" y="-150" type="move" name="rtl-below"/>
    </contour>
  </outline>
</glyph>
<glyph name="uniFEA9" format="1">
  <advance width="912"/>
  <unicode hex="FEA9"/>
  <outline>
    <component base="uni062F"/>
    <contour>
      <point x="400" y="1000" type="move" name="rtl-above"/>
    </contour>
    <contour>
      <point x="450" y="-150" type="move" name="rtl-below"/>
    </contour>
  </outline>
</glyph>
<glyph name="uniFEC1" format="1">
  <advance width="1894"/>
  <unicode hex="FEC1"/>
  <outline>
    <component base="uni0637"/>
    <contour>
      <point x="603" y="1650" type="move" name="rtl-above"/>
    </contour>
    <contour>
      <point x="603" y="-150" type="move" name="rtl-below"/>
    </contour>
  </outline>
</glyph>
<glyph name="u1D540" format="1">
  <advance width="804"/>
  <unicode hex="1D540"/>
  <outline>
    <contour>
      <point x="302" y="1393" type="line"/>
      <point x="302" y="100" type="line"/>
      <point x="504" y="100" type="line"/>
      <point x="504" y="1393" type="line"/>
    </contour>
    <contour>
      <point x="102" y="1493" type="line"/>
      <point x="702" y="1493" type="line"/>
      <point x="702" y="1393" type="line"/>
      <point x="602" y="1393" type="line"/>
      <point x="602" y="100" type="line"/>
      <point x="702" y="100" type="line"/>
      <point x="702" y="0" type="line"/>
      <point x="102" y="0" type="line"/>
      <point x="102" y="100" type="line"/>
      <point x="202" y="100" type="line"/>
      <point x="202" y="1393" type="line"/>
      <point x="102" y="1393" type="line"/>
    </contour>
    <contour>
      <point x="402" y="1520" type="move" name="above"/>
    </contour>
    <contour>
      <point x="402" y="0" type="move" name="below"/>
    </contour>
  </outline>
</glyph>
<glyph name="uni06A0.init" format="1">
  <advance width="1222"/>
  <outline>
    <component base="uniFECB"/>
    <component base="arabic_3dots" xOffset="300" yOffset="1200"/>
    <contour>
      <point x="500" y="1650" type="move" name="rtl-above"/>
    </contour>
    <contour>
      <point x="600" y="-100" type="move" name="rtl-below"/>
    </contour>
  </outline>
</glyph>
<glyph name="uni06B8.init" format="1">
  <advance width="624"/>
  <outline>
    <component base="uniFEDF"/>
    <component base="arabic_3dots_a" xOffset="99" yOffset="-250"/>
    <contour>
      <point x="339" y="1650" type="move" name="rtl-above"/>
    </contour>
    <contour>
      <point x="299" y="-550" type="move" name="rtl-below"/>
    </contour>
  </outline>
</glyph>
